<?xml version="1.0" standalone="no"?>
<!DOCTYPE svg PUBLIC "-//W3C//DTD SVG 1.1//EN"
  "http://www.w3.org/Graphics/SVG/1.1/DTD/svg11.dtd">
<svg width="349.90000915527344mm" height="200.00000415742392mm" viewBox="-84.80000305175781 -1.2020000070333479 349.90000915527344 200.00000415742392" xmlns="http://www.w3.org/2000/svg" version="1.1">
	<title>svgOutput</title>
	<desc>made with tinkercad</desc>
<path d="M 264.1000061035156 194.38400268554682 L 264.0881652832031 194.5599975585937 L 264.0820007324219 194.6519927978515 L 264.0260009765625 194.91799926757807 L 263.9721374511719 195.07200622558588 L 263.9339904785156 195.18099975585932 L 263.8059997558594 195.43899536132807 L 263.71221923828125 195.583999633789 L 263.67999267578125 195.633804321289 L 263.64300537109375 195.69099426269526 L 263.4460144042969 195.93400573730463 L 263.2867736816406 196.09599304199213 L 263.21600341796875 196.16799926757807 L 263.1679992675781 196.20886230468744 L 262.9540100097656 196.3910064697265 L 262.6629943847656 196.60099792480463 L 262.656005859375 196.60531616210932 L 262.6516418457031 196.60800170898432 L 262.3429870605469 196.79800415039057 L 262.1440124511719 196.90267944335932 L 261.99700927734375 196.979995727539 L 261.6849670410156 197.11999511718744 L 261.62701416015625 197.14599609374994 L 261.2359924316406 197.29499816894526 L 261.1199951171875 197.3319702148437 L 260.82501220703125 197.42599487304682 L 260.6080017089844 197.48278808593744 L 260.3970031738281 197.53799438476557 L 260.09600830078125 197.601333618164 L 259.9549865722656 197.6309967041015 L 259.94879150390625 197.63200378417963 L 259.50201416015625 197.7039947509765 L 259.0719909667969 197.75239562988276 L 259.0400085449219 197.7559967041015 L 258.5719909667969 197.78799438476557 L 258.55999755859375 197.78825378417963 L 258.10198974609375 197.79800415039057 L 258.0480041503906 197.79800415039057 L 257.02398681640625 197.79800415039057 L 256 197.79800415039057 L 254.9759979248047 197.79800415039057 L 253.95199584960938 197.79800415039057 L 252.92799377441406 197.79800415039057 L 251.9040069580078 197.79800415039057 L 250.8800048828125 197.79800415039057 L 249.8560028076172 197.79800415039057 L 248.83200073242188 197.79800415039057 L 247.80799865722656 197.79800415039057 L 246.78399658203125 197.79800415039057 L 245.75999450683594 197.79800415039057 L 244.73599243164062 197.79800415039057 L 243.71200561523438 197.79800415039057 L 242.68800354003906 197.79800415039057 L 241.66400146484375 197.79800415039057 L 240.63999938964844 197.79800415039057 L 239.61599731445312 197.79800415039057 L 238.5919952392578 197.79800415039057 L 237.5679931640625 197.79800415039057 L 236.54400634765625 197.79800415039057 L 235.52000427246094 197.79800415039057 L 234.49600219726562 197.79800415039057 L 233.4720001220703 197.79800415039057 L 232.447998046875 197.79800415039057 L 231.4239959716797 197.79800415039057 L 230.39999389648438 197.79800415039057 L 229.37600708007812 197.79800415039057 L 228.3520050048828 197.79800415039057 L 227.3280029296875 197.79800415039057 L 226.3040008544922 197.79800415039057 L 225.27999877929688 197.79800415039057 L 224.25599670410156 197.79800415039057 L 223.23199462890625 197.79800415039057 L 222.20799255371094 197.79800415039057 L 221.1840057373047 197.79800415039057 L 220.16000366210938 197.79800415039057 L 219.13600158691406 197.79800415039057 L 218.11199951171875 197.79800415039057 L 217.08799743652344 197.79800415039057 L 216.06399536132812 197.79800415039057 L 215.0399932861328 197.79800415039057 L 214.01600646972656 197.79800415039057 L 212.99200439453125 197.79800415039057 L 211.96800231933594 197.79800415039057 L 210.94400024414062 197.79800415039057 L 209.9199981689453 197.79800415039057 L 208.89599609375 197.79800415039057 L 207.8719940185547 197.79800415039057 L 206.84800720214844 197.79800415039057 L 205.82400512695312 197.79800415039057 L 204.8000030517578 197.79800415039057 L 203.7760009765625 197.79800415039057 L 202.7519989013672 197.79800415039057 L 201.72799682617188 197.79800415039057 L 200.70399475097656 197.79800415039057 L 199.67999267578125 197.79800415039057 L 198.656005859375 197.79800415039057 L 197.6320037841797 197.79800415039057 L 196.60800170898438 197.79800415039057 L 195.58399963378906 197.79800415039057 L 194.55999755859375 197.79800415039057 L 193.53599548339844 197.79800415039057 L 192.51199340820312 197.79800415039057 L 191.48800659179688 197.79800415039057 L 190.46400451660156 197.79800415039057 L 189.44000244140625 197.79800415039057 L 188.41600036621094 197.79800415039057 L 187.39199829101562 197.79800415039057 L 186.3679962158203 197.79800415039057 L 185.343994140625 197.79800415039057 L 184.32000732421875 197.79800415039057 L 183.29600524902344 197.79800415039057 L 182.27200317382812 197.79800415039057 L 181.2480010986328 197.79800415039057 L 180.2239990234375 197.79800415039057 L 179.1999969482422 197.79800415039057 L 178.17599487304688 197.79800415039057 L 177.15199279785156 197.79800415039057 L 176.1280059814453 197.79800415039057 L 175.10400390625 197.79800415039057 L 174.0800018310547 197.79800415039057 L 173.05599975585938 197.79800415039057 L 172.03199768066406 197.79800415039057 L 171.00799560546875 197.79800415039057 L 169.98399353027344 197.79800415039057 L 168.9600067138672 197.79800415039057 L 167.93600463867188 197.79800415039057 L 166.91200256347656 197.79800415039057 L 165.88800048828125 197.79800415039057 L 164.86399841308594 197.79800415039057 L 163.83999633789062 197.79800415039057 L 162.8159942626953 197.79800415039057 L 161.79200744628906 197.79800415039057 L 160.76800537109375 197.79800415039057 L 159.74400329589844 197.79800415039057 L 158.72000122070312 197.79800415039057 L 157.6959991455078 197.79800415039057 L 156.6719970703125 197.79800415039057 L 155.6479949951172 197.79800415039057 L 154.62399291992188 197.79800415039057 L 153.60000610351562 197.79800415039057 L 152.5760040283203 197.79800415039057 L 151.552001953125 197.79800415039057 L 150.5279998779297 197.79800415039057 L 149.50399780273438 197.79800415039057 L 148.47999572753906 197.79800415039057 L 147.45599365234375 197.79800415039057 L 146.4320068359375 197.79800415039057 L 145.4080047607422 197.79800415039057 L 144.38400268554688 197.79800415039057 L 143.36000061035156 197.79800415039057 L 142.33599853515625 197.79800415039057 L 141.31199645996094 197.79800415039057 L 140.28799438476562 197.79800415039057 L 139.26400756835938 197.79800415039057 L 138.24000549316406 197.79800415039057 L 137.21600341796875 197.79800415039057 L 136.19200134277344 197.79800415039057 L 135.16799926757812 197.79800415039057 L 134.1439971923828 197.79800415039057 L 133.1199951171875 197.79800415039057 L 132.0959930419922 197.79800415039057 L 131.07200622558594 197.79800415039057 L 130.04800415039062 197.79800415039057 L 129.0240020751953 197.79800415039057 L 128 197.79800415039057 L 126.97599792480469 197.79800415039057 L 125.9520034790039 197.79800415039057 L 124.9280014038086 197.79800415039057 L 123.90399932861328 197.79800415039057 L 122.87999725341797 197.79800415039057 L 121.85600280761719 197.79800415039057 L 120.83200073242188 197.79800415039057 L 119.80799865722656 197.79800415039057 L 118.78399658203125 197.79800415039057 L 117.76000213623047 197.79800415039057 L 116.73600006103516 197.79800415039057 L 115.71199798583984 197.79800415039057 L 114.68800354003906 197.79800415039057 L 113.66400146484375 197.79800415039057 L 112.63999938964844 197.79800415039057 L 111.61599731445312 197.79800415039057 L 110.59200286865234 197.79800415039057 L 109.56800079345703 197.79800415039057 L 108.54399871826172 197.79800415039057 L 107.5199966430664 197.79800415039057 L 106.49600219726562 197.79800415039057 L 105.47200012207031 197.79800415039057 L 104.447998046875 197.79800415039057 L 103.42400360107422 197.79800415039057 L 102.4000015258789 197.79800415039057 L 101.3759994506836 197.79800415039057 L 100.35199737548828 197.79800415039057 L 99.3280029296875 197.79800415039057 L 98.30400085449219 197.79800415039057 L 97.27999877929688 197.79800415039057 L 96.25599670410156 197.79800415039057 L 95.23200225830078 197.79800415039057 L 94.20800018310547 197.79800415039057 L 93.18399810791016 197.79800415039057 L 92.16000366210938 197.79800415039057 L 91.13600158691406 197.79800415039057 L 90.11199951171875 197.79800415039057 L 89.08799743652344 197.79800415039057 L 88.06400299072266 197.79800415039057 L 87.04000091552734 197.79800415039057 L 86.01599884033203 197.79800415039057 L 84.99199676513672 197.79800415039057 L 83.96800231933594 197.79800415039057 L 82.94400024414062 197.79800415039057 L 81.91999816894531 197.79800415039057 L 80.89600372314453 197.79800415039057 L 79.87200164794922 197.79800415039057 L 78.8479995727539 197.79800415039057 L 77.8239974975586 197.79800415039057 L 76.80000305175781 197.79800415039057 L 75.7760009765625 197.79800415039057 L 74.75199890136719 197.79800415039057 L 73.72799682617188 197.79800415039057 L 72.7040023803711 197.79800415039057 L 71.68000030517578 197.79800415039057 L 70.65599822998047 197.79800415039057 L 69.63200378417969 197.79800415039057 L 68.60800170898438 197.79800415039057 L 67.58399963378906 197.79800415039057 L 66.55999755859375 197.79800415039057 L 65.53600311279297 197.79800415039057 L 64.51200103759766 197.79800415039057 L 63.487998962402344 197.79800415039057 L 62.4640007019043 197.79800415039057 L 61.439998626708984 197.79800415039057 L 60.41600036621094 197.79800415039057 L 59.391998291015625 197.79800415039057 L 58.36800003051758 197.79800415039057 L 57.34400177001953 197.79800415039057 L 56.31999969482422 197.79800415039057 L 55.29600143432617 197.79800415039057 L 54.27199935913086 197.79800415039057 L 53.24800109863281 197.79800415039057 L 52.2239990234375 197.79800415039057 L 51.20000076293945 197.79800415039057 L 50.17599868774414 197.79800415039057 L 49.152000427246094 197.79800415039057 L 48.12799835205078 197.79800415039057 L 47.104000091552734 197.79800415039057 L 46.08000183105469 197.79800415039057 L 45.055999755859375 197.79800415039057 L 44.03200149536133 197.79800415039057 L 43.007999420166016 197.79800415039057 L 41.98400115966797 197.79800415039057 L 40.959999084472656 197.79800415039057 L 39.93600082397461 197.79800415039057 L 38.9119987487793 197.79800415039057 L 37.88800048828125 197.79800415039057 L 36.86399841308594 197.79800415039057 L 35.84000015258789 197.79800415039057 L 34.816001892089844 197.79800415039057 L 33.79199981689453 197.79800415039057 L 32.768001556396484 197.79800415039057 L 31.743999481201172 197.79800415039057 L 30.719999313354492 197.79800415039057 L 29.695999145507812 197.79800415039057 L 28.672000885009766 197.79800415039057 L 27.648000717163086 197.79800415039057 L 26.624000549316406 197.79800415039057 L 25.600000381469727 197.79800415039057 L 24.576000213623047 197.79800415039057 L 23.552000045776367 197.79800415039057 L 22.527999877929688 197.79800415039057 L 21.503999710083008 197.79800415039057 L 20.479999542236328 197.79800415039057 L 19.45599937438965 197.79800415039057 L 18.43199920654297 197.79800415039057 L 17.408000946044922 197.79800415039057 L 16.384000778198242 197.79800415039057 L 15.359999656677246 197.79800415039057 L 14.336000442504883 197.79800415039057 L 13.312000274658203 197.79800415039057 L 12.288000106811523 197.79800415039057 L 11.263999938964844 197.79800415039057 L 10.239999771118164 197.79800415039057 L 9.215999603271484 197.79800415039057 L 8.192000389099121 197.79800415039057 L 7.168000221252441 197.79800415039057 L 6.144000053405762 197.79800415039057 L 5.119999885559082 197.79800415039057 L 4.0960001945495605 197.79800415039057 L 3.072000026702881 197.79800415039057 L 2.0480000972747803 197.79800415039057 L 1.0240000486373901 197.79800415039057 L 0 197.79800415039057 L -1.0240000486373901 197.79800415039057 L -2.0480000972747803 197.79800415039057 L -3.072000026702881 197.79800415039057 L -4.0960001945495605 197.79800415039057 L -5.119999885559082 197.79800415039057 L -6.144000053405762 197.79800415039057 L -7.168000221252441 197.79800415039057 L -8.192000389099121 197.79800415039057 L -9.215999603271484 197.79800415039057 L -10.239999771118164 197.79800415039057 L -11.263999938964844 197.79800415039057 L -12.288000106811523 197.79800415039057 L -13.312000274658203 197.79800415039057 L -14.336000442504883 197.79800415039057 L -15.359999656677246 197.79800415039057 L -16.384000778198242 197.79800415039057 L -17.408000946044922 197.79800415039057 L -18.43199920654297 197.79800415039057 L -19 197.79800415039057 L -19.45599937438965 197.79800415039057 L -20.479999542236328 197.79800415039057 L -21.479000091552734 197.79800415039057 L -21.503999710083008 197.79800415039057 L -22.527999877929688 197.79800415039057 L -23.552000045776367 197.79800415039057 L -24.576000213623047 197.79800415039057 L -25.600000381469727 197.79800415039057 L -26.624000549316406 197.79800415039057 L -27.648000717163086 197.79800415039057 L -28.672000885009766 197.79800415039057 L -29.695999145507812 197.79800415039057 L -30.719999313354492 197.79800415039057 L -31.743999481201172 197.79800415039057 L -32.768001556396484 197.79800415039057 L -33.79199981689453 197.79800415039057 L -34.816001892089844 197.79800415039057 L -35.84000015258789 197.79800415039057 L -36.86399841308594 197.79800415039057 L -37.88800048828125 197.79800415039057 L -38.9119987487793 197.79800415039057 L -39.93600082397461 197.79800415039057 L -40.959999084472656 197.79800415039057 L -41.98400115966797 197.79800415039057 L -43.007999420166016 197.79800415039057 L -44.03200149536133 197.79800415039057 L -45.055999755859375 197.79800415039057 L -46.08000183105469 197.79800415039057 L -47.104000091552734 197.79800415039057 L -48.12799835205078 197.79800415039057 L -49.152000427246094 197.79800415039057 L -50.17599868774414 197.79800415039057 L -51.20000076293945 197.79800415039057 L -52.2239990234375 197.79800415039057 L -53.24800109863281 197.79800415039057 L -54.27199935913086 197.79800415039057 L -55.20000076293945 197.79800415039057 L -55.29600143432617 197.79800415039057 L -56.31999969482422 197.79800415039057 L -57.34400177001953 197.79800415039057 L -58.29999923706055 197.79800415039057 L -58.36800003051758 197.79800415039057 L -59 197.79800415039057 L -59.391998291015625 197.79800415039057 L -60.41600036621094 197.79800415039057 L -60.479000091552734 197.79800415039057 L -61.439998626708984 197.79800415039057 L -62.4640007019043 197.79800415039057 L -63.487998962402344 197.79800415039057 L -64.51200103759766 197.79800415039057 L -65.53600311279297 197.79800415039057 L -66.55999755859375 197.79800415039057 L -67.58399963378906 197.79800415039057 L -68.60800170898438 197.79800415039057 L -69.63200378417969 197.79800415039057 L -70.65599822998047 197.79800415039057 L -71.68000030517578 197.79800415039057 L -72.7040023803711 197.79800415039057 L -73.72799682617188 197.79800415039057 L -74.75199890136719 197.79800415039057 L -75.7760009765625 197.79800415039057 L -76.80000305175781 197.79800415039057 L -77.802001953125 197.79800415039057 L -77.8239974975586 197.79753112792963 L -78.27200317382812 197.78799438476557 L -78.73999786376953 197.7559967041015 L -78.8479995727539 197.74385070800776 L -79.2020034790039 197.7039947509765 L -79.64879608154297 197.63200378417963 L -79.65499877929688 197.6309967041015 L -79.87200164794922 197.5853424072265 L -80.09700012207031 197.53799438476557 L -80.38400268554688 197.46289062499994 L -80.5250015258789 197.42599487304682 L -80.89600372314453 197.3077545166015 L -80.93599700927734 197.29499816894526 L -81.3270034790039 197.14599609374994 L -81.38494873046875 197.11999511718744 L -81.40799713134766 197.10966491699213 L -81.6969985961914 196.979995727539 L -81.91999816894531 196.86270141601557 L -82.04299926757812 196.79800415039057 L -82.35163116455078 196.60800170898432 L -82.36299896240234 196.60099792480463 L -82.43199920654297 196.5512084960937 L -82.65399932861328 196.3910064697265 L -82.91600036621094 196.16799926757807 L -82.94400024414062 196.13951110839838 L -82.98677062988281 196.09599304199213 L -83.14600372314453 195.93400573730463 L -83.34300231933594 195.69099426269526 L -83.4122085571289 195.583999633789 L -83.45600128173828 195.5162963867187 L -83.50599670410156 195.43899536132807 L -83.63400268554688 195.18099975585932 L -83.67212677001953 195.07200622558588 L -83.72599792480469 194.91799926757807 L -83.78199768066406 194.6519927978515 L -83.78817749023438 194.5599975585937 L -83.80000305175781 194.38400268554682 L -83.80000305175781 193.53599548339838 L -83.80000305175781 192.51199340820307 L -83.80000305175781 191.48800659179685 L -83.80000305175781 190.46400451660153 L -83.80000305175781 189.44000244140622 L -83.80000305175781 188.4160003662109 L -83.80000305175781 187.3919982910156 L -83.80000305175781 186.36799621582028 L -83.80000305175781 185.34399414062497 L -83.80000305175781 184.32000732421872 L -83.80000305175781 183.2960052490234 L -83.80000305175781 182.2720031738281 L -83.80000305175781 181.24800109863278 L -83.80000305175781 180.22399902343747 L -83.80000305175781 179.19999694824216 L -83.80000305175781 178.17599487304685 L -83.80000305175781 177.15199279785153 L -83.80000305175781 176.12800598144528 L -83.80000305175781 175.10400390624997 L -83.80000305175781 174.08000183105466 L -83.80000305175781 173.05599975585935 L -83.80000305175781 172.03199768066403 L -83.80000305175781 171.00799560546872 L -83.80000305175781 169.9839935302734 L -83.80000305175781 168.96000671386716 L -83.80000305175781 167.93600463867185 L -83.80000305175781 166.91200256347653 L -83.80000305175781 165.88800048828122 L -83.80000305175781 164.8639984130859 L -83.80000305175781 163.8399963378906 L -83.80000305175781 162.81599426269528 L -83.80000305175781 161.79200744628903 L -83.80000305175781 160.76800537109372 L -83.80000305175781 159.7440032958984 L -83.80000305175781 158.7200012207031 L -83.80000305175781 157.69599914550778 L -83.80000305175781 156.67199707031247 L -83.80000305175781 155.64799499511716 L -83.80000305175781 154.62399291992185 L -83.80000305175781 153.6000061035156 L -83.80000305175781 152.57600402832028 L -83.80000305175781 151.55200195312497 L -83.80000305175781 150.52799987792966 L -83.80000305175781 149.50399780273435 L -83.80000305175781 148.47999572753903 L -83.80000305175781 147.45599365234372 L -83.80000305175781 146.43200683593747 L -83.80000305175781 145.40800476074216 L -83.80000305175781 144.38400268554685 L -83.80000305175781 143.36000061035153 L -83.80000305175781 142.33599853515622 L -83.80000305175781 141.3119964599609 L -83.80000305175781 140.2879943847656 L -83.80000305175781 139.26400756835935 L -83.80000305175781 138.24000549316403 L -83.80000305175781 137.21600341796872 L -83.80000305175781 136.1920013427734 L -83.80000305175781 135.1679992675781 L -83.80000305175781 134.14399719238278 L -83.80000305175781 133.11999511718747 L -83.80000305175781 132.09599304199216 L -83.80000305175781 131.0720062255859 L -83.80000305175781 130.0480041503906 L -83.80000305175781 129.02400207519528 L -83.80000305175781 127.99999999999997 L -83.80000305175781 126.97599792480466 L -83.80000305175781 125.95200347900388 L -83.80000305175781 124.92800140380857 L -83.80000305175781 123.90399932861325 L -83.80000305175781 122.87999725341794 L -83.80000305175781 121.85600280761716 L -83.80000305175781 120.83200073242185 L -83.80000305175781 119.80799865722653 L -83.80000305175781 118.78399658203122 L -83.80000305175781 117.76000213623044 L -83.80000305175781 116.73600006103513 L -83.80000305175781 115.71199798583982 L -83.80000305175781 114.68800354003903 L -83.80000305175781 113.66400146484372 L -83.80000305175781 112.63999938964841 L -83.80000305175781 111.6159973144531 L -83.80000305175781 110.59200286865232 L -83.80000305175781 109.568000793457 L -83.80000305175781 108.54399871826169 L -83.80000305175781 107.51999664306638 L -83.80000305175781 106.4960021972656 L -83.80000305175781 105.47200012207028 L -83.80000305175781 104.44799804687497 L -83.80000305175781 103.42400360107419 L -83.80000305175781 102.40000152587888 L -83.80000305175781 101.37599945068357 L -83.80000305175781 100.35199737548825 L -83.80000305175781 99.32800292968747 L -83.80000305175781 98.30400085449216 L -83.80000305175781 97.27999877929685 L -83.80000305175781 96.25599670410153 L -83.80000305175781 95.23200225830077 L -83.80000305175781 94.20800018310545 L -83.80000305175781 93.18399810791014 L -83.80000305175781 92.16000366210936 L -83.80000305175781 91.13600158691405 L -83.80000305175781 90.11199951171874 L -83.80000305175781 89.08799743652342 L -83.80000305175781 88.06400299072264 L -83.80000305175781 87.04000091552733 L -83.80000305175781 86.01599884033202 L -83.80000305175781 84.9919967651367 L -83.80000305175781 83.96800231933592 L -83.80000305175781 82.94400024414061 L -83.80000305175781 81.9199981689453 L -83.80000305175781 80.89600372314452 L -83.80000305175781 79.8720016479492 L -83.80000305175781 78.84799957275389 L -83.80000305175781 77.82399749755858 L -83.80000305175781 76.8000030517578 L -83.80000305175781 75.77600097656249 L -83.80000305175781 74.75199890136717 L -83.80000305175781 73.72799682617186 L -83.80000305175781 72.70400238037108 L -83.80000305175781 71.68000030517577 L -83.80000305175781 70.65599822998045 L -83.80000305175781 69.63200378417967 L -83.80000305175781 68.60800170898436 L -83.80000305175781 67.58399963378905 L -83.80000305175781 66.55999755859374 L -83.80000305175781 65.53600311279295 L -83.80000305175781 64.51200103759764 L -83.80000305175781 63.48799896240233 L -83.80000305175781 62.46400070190428 L -83.80000305175781 61.43999862670897 L -83.80000305175781 60.41600036621092 L -83.80000305175781 59.39199829101561 L -83.80000305175781 58.368000030517564 L -83.80000305175781 57.34400177001952 L -83.80000305175781 56.319999694824205 L -83.80000305175781 55.29600143432616 L -83.80000305175781 54.271999359130845 L -83.80000305175781 53.2480010986328 L -83.80000305175781 52.223999023437486 L -83.80000305175781 51.20000076293944 L -83.80000305175781 50.175998687744126 L -83.80000305175781 49.15200042724608 L -83.80000305175781 48.12799835205077 L -83.80000305175781 47.10400009155273 L -83.80000305175781 46.08000183105468 L -83.80000305175781 45.05599975585937 L -83.80000305175781 44.03200149536132 L -83.80000305175781 43.00799942016601 L -83.80000305175781 41.98400115966796 L -83.80000305175781 40.95999908447265 L -83.80000305175781 39.9360008239746 L -83.80000305175781 38.91199874877929 L -83.80000305175781 37.88800048828124 L -83.80000305175781 36.86399841308593 L -83.80000305175781 35.84000015258788 L -83.80000305175781 34.81600189208984 L -83.80000305175781 33.791999816894524 L -83.80000305175781 32.76800155639648 L -83.80000305175781 31.743999481201165 L -83.80000305175781 30.719999313354485 L -83.80000305175781 29.695999145507805 L -83.80000305175781 28.67200088500976 L -83.80000305175781 27.64800071716308 L -83.80000305175781 26.6240005493164 L -83.80000305175781 25.60000038146972 L -83.80000305175781 24.57600021362304 L -83.80000305175781 23.552000045776364 L -83.80000305175781 22.527999877929684 L -83.80000305175781 21.503999710083004 L -83.80000305175781 20.479999542236325 L -83.80000305175781 19.455999374389645 L -83.80000305175781 18.431999206542965 L -83.80000305175781 17.40800094604492 L -83.80000305175781 16.38400077819824 L -83.80000305175781 15.359999656677243 L -83.80000305175781 14.33600044250488 L -83.80000305175781 13.3120002746582 L -83.80000305175781 12.28800010681152 L -83.80000305175781 11.263999938964842 L -83.80000305175781 10.239999771118162 L -83.80000305175781 9.215999603271483 L -83.80000305175781 8.19200038909912 L -83.80000305175781 7.16800022125244 L -83.80000305175781 6.14400005340576 L -83.80000305175781 5.119999885559081 L -83.80000305175781 4.09600019454956 L -83.80000305175781 3.2119998931884757 L -83.79059600830078 3.07200002670288 L -83.78199768066406 2.9440000057220455 L -83.72599792480469 2.6779999732971187 L -83.68472290039062 2.5599999427795406 L -83.63400268554688 2.414999961853027 L -83.50599670410156 2.157000064849853 L -83.45600128173828 2.079699277877807 L -83.43549346923828 2.04800009727478 L -83.34300231933594 1.90499997138977 L -83.14600372314453 1.661999940872192 L -83.02215576171875 1.53600001335144 L -82.94400024414062 1.4564869403839111 L -82.91600036621094 1.4279999732971191 L -82.65399932861328 1.2050000429153442 L -82.43199920654297 1.0447938442230225 L -82.40318298339844 1.0240000486373901 L -82.36299896240234 0.9950000047683715 L -82.04299926757812 0.7979999780654906 L -81.91999816894531 0.7333005666732788 L -81.6969985961914 0.6159999966621399 L -81.46519470214844 0.5120000243186951 L -81.3270034790039 0.44999998807907104 L -80.93599700927734 0.30099999904632574 L -80.89600372314453 0.28825059533119207 L -80.5250015258789 0.17000000178813943 L -80.38400268554688 0.13310280442237862 L -80.09700012207031 0.05799999833107004 L -79.87200164794922 0.01065837126225244 L -79.82134246826172 1.1102230246251565e-16 L -79.65499877929688 -0.035000000149011494 L -79.2020034790039 -0.10800000280141817 L -78.8479995727539 -0.14784415066242204 L -78.73999786376953 -0.15999999642372117 L -78.33599853515625 -0.1867606788873671 L -78.27200317382812 -0.19099999964237196 L -77.8239974975586 -0.2014851123094557 L -77.802001953125 -0.20200000703334792 L -76.80000305175781 -0.20200000703334792 L -75.7760009765625 -0.20200000703334792 L -73.72799682617188 -0.20200000703334792 L -65.53600311279297 -0.20200000703334792 L -60.479000091552734 -0.20200000703334792 L -59 -0.20200000703334792 L -58.29999923706055 -0.20200000703334792 L -55.20000076293945 -0.20200000703334792 L -26.299999237060547 -0.20200000703334792 L -23.200000762939453 -0.20200000703334792 L -21.479000091552734 -0.20200000703334792 L -19 -0.20200000703334792 L 0 -0.20200000703334792 L 131.07200622558594 -0.20200000703334792 L 196.60800170898438 -0.20200000703334792 L 229.37600708007812 -0.20200000703334792 L 245.75999450683594 -0.20200000703334792 L 253.95199584960938 -0.20200000703334792 L 258.0480041503906 -0.20200000703334792 L 258.10198974609375 -0.20200000703334792 L 258.55999755859375 -0.1912808567285536 L 258.5719909667969 -0.19099999964237196 L 259.0400085449219 -0.15999999642372117 L 259.0719909667969 -0.15639826655387865 L 259.50201416015625 -0.10800000280141817 L 259.9549865722656 -0.035000000149011494 L 260.09600830078125 -0.005332579370587952 L 260.121337890625 1.1102230246251565e-16 L 260.3970031738281 0.05799999833107004 L 260.6080017089844 0.11321495473384866 L 260.82501220703125 0.17000000178813943 L 261.1199951171875 0.26402676105499273 L 261.2359924316406 0.30099999904632574 L 261.62701416015625 0.44999998807907104 L 261.76519775390625 0.5120000243186951 L 261.99700927734375 0.6159999966621399 L 262.1440124511719 0.6933236718177795 L 262.3429870605469 0.7979999780654906 L 262.6629943847656 0.9950000047683715 L 262.70318603515625 1.0240000486373901 L 262.9540100097656 1.2050000429153442 L 263.1679992675781 1.3871450424194336 L 263.21600341796875 1.4279999732971191 L 263.3221435546875 1.53600001335144 L 263.4460144042969 1.661999940872192 L 263.64300537109375 1.90499997138977 L 263.67999267578125 1.962202429771423 L 263.7355041503906 2.04800009727478 L 263.8059997558594 2.157000064849853 L 263.9339904785156 2.414999961853027 L 263.9847106933594 2.5599999427795406 L 264.0260009765625 2.6779999732971187 L 264.0820007324219 2.9440000057220455 L 264.0906066894531 3.07200002670288 L 264.1000061035156 3.2119998931884757 L 264.1000061035156 3.58400011062622 L 264.1000061035156 4.09600019454956 L 264.1000061035156 5.119999885559081 L 264.1000061035156 6.14400005340576 L 264.1000061035156 7.16800022125244 L 264.1000061035156 8.19200038909912 L 264.1000061035156 9.215999603271483 L 264.1000061035156 10.239999771118162 L 264.1000061035156 11.263999938964842 L 264.1000061035156 12.28800010681152 L 264.1000061035156 13.3120002746582 L 264.1000061035156 14.33600044250488 L 264.1000061035156 15.359999656677243 L 264.1000061035156 16.38400077819824 L 264.1000061035156 17.40800094604492 L 264.1000061035156 18.431999206542965 L 264.1000061035156 19.455999374389645 L 264.1000061035156 20.479999542236325 L 264.1000061035156 21.503999710083004 L 264.1000061035156 22.527999877929684 L 264.1000061035156 23.552000045776364 L 264.1000061035156 24.57600021362304 L 264.1000061035156 25.60000038146972 L 264.1000061035156 26.6240005493164 L 264.1000061035156 27.64800071716308 L 264.1000061035156 28.67200088500976 L 264.1000061035156 29.695999145507805 L 264.1000061035156 30.719999313354485 L 264.1000061035156 31.743999481201165 L 264.1000061035156 32.76800155639648 L 264.1000061035156 33.791999816894524 L 264.1000061035156 34.81600189208984 L 264.1000061035156 35.84000015258788 L 264.1000061035156 36.86399841308593 L 264.1000061035156 37.88800048828124 L 264.1000061035156 38.91199874877929 L 264.1000061035156 39.9360008239746 L 264.1000061035156 40.95999908447265 L 264.1000061035156 41.98400115966796 L 264.1000061035156 42.9000015258789 L 264.1000061035156 43.00799942016601 L 264.1000061035156 44.03200149536132 L 264.1000061035156 45.05599975585937 L 264.1000061035156 46.08000183105468 L 264.1000061035156 47.10400009155273 L 264.1000061035156 48.12799835205077 L 264.1000061035156 49.15200042724608 L 264.1000061035156 50.175998687744126 L 264.1000061035156 51.20000076293944 L 264.1000061035156 52.223999023437486 L 264.1000061035156 53.2480010986328 L 264.1000061035156 54.271999359130845 L 264.1000061035156 55.29600143432616 L 264.1000061035156 56.319999694824205 L 264.1000061035156 57.34400177001952 L 264.1000061035156 58.368000030517564 L 264.1000061035156 59.39199829101561 L 264.1000061035156 60.41600036621092 L 264.1000061035156 61.43999862670897 L 264.1000061035156 62.46400070190428 L 264.1000061035156 63.48799896240233 L 264.1000061035156 64.51200103759764 L 264.1000061035156 65.53600311279295 L 264.1000061035156 66.55999755859374 L 264.1000061035156 67.58399963378905 L 264.1000061035156 68.60800170898436 L 264.1000061035156 69.63200378417967 L 264.1000061035156 70.65599822998045 L 264.1000061035156 71.68000030517577 L 264.1000061035156 72.70400238037108 L 264.1000061035156 73.72799682617186 L 264.1000061035156 74.75199890136717 L 264.1000061035156 75.77600097656249 L 264.1000061035156 76.8000030517578 L 264.1000061035156 77.82399749755858 L 264.1000061035156 78.84799957275389 L 264.1000061035156 79.8720016479492 L 264.1000061035156 80.89600372314452 L 264.1000061035156 81.9199981689453 L 264.1000061035156 82.90000152587889 L 264.1000061035156 82.94400024414061 L 264.1000061035156 83.96800231933592 L 264.1000061035156 84.9919967651367 L 264.1000061035156 86.01599884033202 L 264.1000061035156 87.04000091552733 L 264.1000061035156 88.06400299072264 L 264.1000061035156 89.08799743652342 L 264.1000061035156 90.11199951171874 L 264.1000061035156 91.13600158691405 L 264.1000061035156 92.16000366210936 L 264.1000061035156 93.18399810791014 L 264.1000061035156 94.20800018310545 L 264.1000061035156 95.23200225830077 L 264.1000061035156 96.25599670410153 L 264.1000061035156 97.27999877929685 L 264.1000061035156 98.30400085449216 L 264.1000061035156 99.32800292968747 L 264.1000061035156 100.35199737548825 L 264.1000061035156 101.37599945068357 L 264.1000061035156 102.40000152587888 L 264.1000061035156 103.42400360107419 L 264.1000061035156 104.44799804687497 L 264.1000061035156 105.47200012207028 L 264.1000061035156 106.4960021972656 L 264.1000061035156 107.51999664306638 L 264.1000061035156 108.54399871826169 L 264.1000061035156 109.568000793457 L 264.1000061035156 110.59200286865232 L 264.1000061035156 111.6159973144531 L 264.1000061035156 112.63999938964841 L 264.1000061035156 113.66400146484372 L 264.1000061035156 114.68800354003903 L 264.1000061035156 115.71199798583982 L 264.1000061035156 116.73600006103513 L 264.1000061035156 117.76000213623044 L 264.1000061035156 118.78399658203122 L 264.1000061035156 119.80799865722653 L 264.1000061035156 120.83200073242185 L 264.1000061035156 121.85600280761716 L 264.1000061035156 122.87999725341794 L 264.1000061035156 123.90399932861325 L 264.1000061035156 124.92800140380857 L 264.1000061035156 125.95200347900388 L 264.1000061035156 126.97599792480466 L 264.1000061035156 127.99999999999997 L 264.1000061035156 129.02400207519528 L 264.1000061035156 130.0480041503906 L 264.1000061035156 131.0720062255859 L 264.1000061035156 132.09599304199216 L 264.1000061035156 133.11999511718747 L 264.1000061035156 134.14399719238278 L 264.1000061035156 135.1679992675781 L 264.1000061035156 136.1920013427734 L 264.1000061035156 137.21600341796872 L 264.1000061035156 138.24000549316403 L 264.1000061035156 139.26400756835935 L 264.1000061035156 140.2879943847656 L 264.1000061035156 141.3119964599609 L 264.1000061035156 142.33599853515622 L 264.1000061035156 143.36000061035153 L 264.1000061035156 144.38400268554685 L 264.1000061035156 145.40800476074216 L 264.1000061035156 146.43200683593747 L 264.1000061035156 147.45599365234372 L 264.1000061035156 148.47999572753903 L 264.1000061035156 149.50399780273435 L 264.1000061035156 150.52799987792966 L 264.1000061035156 151.55200195312497 L 264.1000061035156 152.57600402832028 L 264.1000061035156 153.6000061035156 L 264.1000061035156 154.62399291992185 L 264.1000061035156 155.64799499511716 L 264.1000061035156 156.67199707031247 L 264.1000061035156 157.69599914550778 L 264.1000061035156 158.7200012207031 L 264.1000061035156 159.7440032958984 L 264.1000061035156 160.76800537109372 L 264.1000061035156 161.79200744628903 L 264.1000061035156 162.81599426269528 L 264.1000061035156 163.8399963378906 L 264.1000061035156 164.8639984130859 L 264.1000061035156 165.88800048828122 L 264.1000061035156 166.91200256347653 L 264.1000061035156 167.93600463867185 L 264.1000061035156 168.96000671386716 L 264.1000061035156 169.9839935302734 L 264.1000061035156 171.00799560546872 L 264.1000061035156 172.03199768066403 L 264.1000061035156 173.05599975585935 L 264.1000061035156 174.08000183105466 L 264.1000061035156 175.10400390624997 L 264.1000061035156 176.12800598144528 L 264.1000061035156 177.15199279785153 L 264.1000061035156 178.17599487304685 L 264.1000061035156 179.19999694824216 L 264.1000061035156 180.22399902343747 L 264.1000061035156 181.24800109863278 L 264.1000061035156 182.2720031738281 L 264.1000061035156 183.2960052490234 L 264.1000061035156 184.32000732421872 L 264.1000061035156 185.34399414062497 L 264.1000061035156 186.36799621582028 L 264.1000061035156 187.3919982910156 L 264.1000061035156 188.4160003662109 L 264.1000061035156 189.44000244140622 L 264.1000061035156 190.46400451660153 L 264.1000061035156 191.48800659179685 L 264.1000061035156 192.51199340820307 L 264.1000061035156 193.53599548339838 L 264.1000061035156 194.04800415039057 L 264.1000061035156 194.38400268554682 M 201.42745971679688 90.11199951171874 L 202.01499938964844 89.67600250244139 L 202.88699340820312 88.88500213623045 L 203.67799377441406 88.01300048828124 L 204.3800048828125 87.06700134277342 L 204.8000030517578 86.36584472656249 L 204.98500061035156 86.05699920654295 L 205.48899841308594 84.9919967651367 L 205.88499450683594 83.88300323486327 L 206.1311798095703 82.90000152587889 L 206.17100524902344 82.74099731445311 L 206.2929229736328 81.9199981689453 L 206.343994140625 81.57599639892577 L 206.40199279785156 80.40000152587889 L 206.343994140625 79.22399902343749 L 206.17100524902344 78.05899810791014 L 205.88499450683594 76.91699981689452 L 205.48899841308594 75.80799865722655 L 204.98500061035156 74.7429962158203 L 204.8000030517578 74.4341583251953 L 204.3800048828125 73.73300170898436 L 204.3762969970703 73.72799682617186 L 203.67799377441406 72.78700256347655 L 202.88699340820312 71.91500091552733 L 202.01499938964844 71.12400054931639 L 201.06900024414062 70.42199707031249 L 200.0590057373047 69.81700134277342 L 198.99400329589844 69.31300354003905 L 197.88499450683594 68.91699981689452 L 196.7429962158203 68.62999725341795 L 196.60800170898438 68.60995483398436 L 195.5780029296875 68.45700073242186 L 194.40199279785156 68.3990020751953 L 193.2259979248047 68.45700073242186 L 192.06100463867188 68.62999725341795 L 190.91900634765625 68.91699981689452 L 189.80999755859375 69.31300354003905 L 188.7449951171875 69.81700134277342 L 188.41600036621094 70.01407623291014 L 187.73500061035156 70.42199707031249 L 186.78900146484375 71.12400054931639 L 185.91700744628906 71.91500091552733 L 185.12600708007812 72.78700256347655 L 184.42770385742188 73.72799682617186 L 184.4239959716797 73.73300170898436 L 183.81900024414062 74.7429962158203 L 183.31500244140625 75.80799865722655 L 182.91900634765625 76.91699981689452 L 182.63299560546875 78.05899810791014 L 182.4600067138672 79.22399902343749 L 182.40199279785156 80.40000152587889 L 182.4600067138672 81.57599639892577 L 182.51107788085938 81.9199981689453 L 182.63299560546875 82.74099731445311 L 182.67282104492188 82.90000152587889 L 182.91900634765625 83.88300323486327 L 183.31500244140625 84.9919967651367 L 183.81900024414062 86.05699920654295 L 184.4239959716797 87.06700134277342 L 185.12600708007812 88.01300048828124 L 185.91700744628906 88.88500213623045 L 186.78900146484375 89.67600250244139 L 187.3765411376953 90.11199951171874 L 187.73500061035156 90.37799835205077 L 188.41600036621094 90.78592681884764 L 188.7449951171875 90.98300170898436 L 189.80999755859375 91.48699951171874 L 190.91900634765625 91.88300323486327 L 192.06100463867188 92.1689987182617 L 193.2259979248047 92.34200286865233 L 194.40199279785156 92.40100097656249 L 195.5780029296875 92.34200286865233 L 196.60800170898438 92.18904876708983 L 196.7429962158203 92.1689987182617 L 197.88499450683594 91.88300323486327 L 198.99400329589844 91.48699951171874 L 200.0590057373047 90.98300170898436 L 201.06900024414062 90.37799835205077 L 201.42745971679688 90.11199951171874 M 254.4810028076172 186.89599609374997 L 253.95199584960938 187.16523742675778 L 253.92300415039062 187.17999267578122 L 253.47999572753906 187.62300109863278 L 253.1959991455078 188.18099975585935 L 253.15879821777344 188.4160003662109 L 253.09800720214844 188.80000305175778 L 253.1959991455078 189.41900634765622 L 253.47999572753906 189.97700500488278 L 253.92300415039062 190.41999816894528 L 253.95199584960938 190.43481445312497 L 254.4810028076172 190.70500183105466 L 255.10000610351562 190.80299377441403 L 255.718994140625 190.70500183105466 L 256.2770080566406 190.41999816894528 L 256.7200012207031 189.97700500488278 L 257.0039978027344 189.41900634765622 L 257.1029968261719 188.80000305175778 L 257.0415954589844 188.4160003662109 L 257.0039978027344 188.18099975585935 L 256.7200012207031 187.62300109863278 L 256.2770080566406 187.17999267578122 L 255.718994140625 186.89599609374997 L 255.10000610351562 186.7980041503906 L 254.4810028076172 186.89599609374997 M 74.88700103759766 124.62799835205075 L 75.24500274658203 126.05599975585935 L 75.74099731445312 127.44200134277341 L 76.37000274658203 128.77299499511716 L 77.12699890136719 130.0359954833984 L 77.89567565917969 131.0720062255859 L 78.00399780273438 131.2180023193359 L 78.99199676513672 132.30900573730466 L 80.08300018310547 133.29699707031247 L 81.26499938964844 134.17399597167966 L 81.91999816894531 134.56658935546872 L 82.52799987792969 134.93099975585935 L 83.02950286865234 135.1679992675781 L 83.85900115966797 135.55999755859372 L 85.24500274658203 136.05599975585935 L 86.6729965209961 136.41400146484372 L 88.12899780273438 136.63000488281247 L 89.5999984741211 136.70199584960935 L 90.11199951171875 136.67692565917966 L 91.06999969482422 136.63000488281247 L 92.5260009765625 136.41400146484372 L 93.9540023803711 136.05599975585935 L 95.33999633789062 135.55999755859372 L 96.16949462890625 135.1679992675781 L 96.6709976196289 134.93099975585935 L 97.93399810791016 134.17399597167966 L 98.30400085449219 133.89947509765622 L 99.11599731445312 133.29699707031247 L 100.20700073242188 132.30900573730466 L 101.19499969482422 131.2180023193359 L 101.30332946777344 131.0720062255859 L 102.0719985961914 130.0359954833984 L 102.8290023803711 128.77299499511716 L 103.45800018310547 127.44200134277341 L 103.62476348876953 126.97599792480466 L 103.9540023803711 126.05599975585935 L 104.31199645996094 124.62799835205075 L 104.52799987792969 123.17199707031247 L 104.54230499267578 122.87999725341794 L 104.5999984741211 121.70200347900388 L 104.52799987792969 120.23200225830075 L 104.31199645996094 118.77600097656247 L 103.9540023803711 117.34799957275388 L 103.45800018310547 115.96099853515622 L 102.85640716552734 114.68800354003903 L 102.8290023803711 114.62999725341794 L 102.0719985961914 113.36699676513669 L 101.19499969482422 112.18499755859372 L 100.20700073242188 111.0940017700195 L 99.65266418457031 110.59200286865232 L 99.11599731445312 110.10600280761716 L 98.30400085449219 109.50352478027341 L 97.93399810791016 109.22899627685544 L 96.6709976196289 108.47200012207028 L 95.33999633789062 107.84300231933591 L 93.9540023803711 107.34700012207028 L 92.5260009765625 106.98899841308591 L 91.06999969482422 106.77300262451169 L 90.11199951171875 106.72607421874997 L 89.5999984741211 106.70099639892575 L 88.12899780273438 106.77300262451169 L 86.6729965209961 106.98899841308591 L 85.24500274658203 107.34700012207028 L 83.85900115966797 107.84300231933591 L 82.52799987792969 108.47200012207028 L 81.91999816894531 108.83641815185544 L 81.26499938964844 109.22899627685544 L 80.08300018310547 110.10600280761716 L 79.54633331298828 110.59200286865232 L 78.99199676513672 111.0940017700195 L 78.00399780273438 112.18499755859372 L 77.12699890136719 113.36699676513669 L 76.37000274658203 114.62999725341794 L 76.34259033203125 114.68800354003903 L 75.74099731445312 115.96099853515622 L 75.24500274658203 117.34799957275388 L 74.88700103759766 118.77600097656247 L 74.6709976196289 120.23200225830075 L 74.5989990234375 121.70200347900388 L 74.65670013427734 122.87999725341794 L 74.6709976196289 123.17199707031247 L 74.88700103759766 124.62799835205075 M 111.7760009765625 98.5429992675781 L 112.94100189208984 98.370002746582 L 113.20453643798828 98.30400085449216 L 114.08300018310547 98.08399963378903 L 114.68800354003906 97.86796569824216 L 115.19200134277344 97.68800354003903 L 116.25700378417969 97.18399810791013 L 117.26699829101562 96.57900238037107 L 118.21299743652344 95.87699890136717 L 119.08499908447266 95.08599853515624 L 119.8759994506836 94.21399688720702 L 120.5780029296875 93.2679977416992 L 121.18299865722656 92.25700378417967 L 121.68699645996094 91.19200134277342 L 122.07264709472656 90.11199951171874 L 122.08300018310547 90.08300018310545 L 122.36900329589844 88.94100189208983 L 122.54199981689453 87.77600097656249 L 122.5999984741211 86.59999847412108 L 122.54199981689453 85.4240036010742 L 122.36900329589844 84.25900268554686 L 122.08300018310547 83.1169967651367 L 122.0055160522461 82.90000152587889 L 121.68699645996094 82.00800323486327 L 121.64535522460938 81.9199981689453 L 121.18299865722656 80.94300079345702 L 120.5780029296875 79.93299865722655 L 119.8759994506836 78.98699951171874 L 119.08499908447266 78.11499786376952 L 118.21299743652344 77.32399749755858 L 117.26699829101562 76.6220016479492 L 116.25700378417969 76.01699829101561 L 115.19200134277344 75.51300048828124 L 114.68800354003906 75.33303070068358 L 114.08300018310547 75.1169967651367 L 112.94100189208984 74.83100128173827 L 111.7760009765625 74.65799713134764 L 110.5999984741211 74.59999847412108 L 109.42400360107422 74.65799713134764 L 108.25900268554688 74.83100128173827 L 107.11699676513672 75.1169967651367 L 106.49600219726562 75.33874511718749 L 106.00800323486328 75.51300048828124 L 104.94300079345703 76.01699829101561 L 103.93299865722656 76.6220016479492 L 102.98699951171875 77.32399749755858 L 102.11499786376953 78.11499786376952 L 101.3239974975586 78.98699951171874 L 100.62200164794922 79.93299865722655 L 100.01699829101562 80.94300079345702 L 99.55464172363281 81.9199981689453 L 99.51300048828125 82.00800323486327 L 99.19448852539062 82.90000152587889 L 99.11699676513672 83.1169967651367 L 98.83100128173828 84.25900268554686 L 98.65799713134766 85.4240036010742 L 98.5999984741211 86.59999847412108 L 98.65799713134766 87.77600097656249 L 98.83100128173828 88.94100189208983 L 99.11699676513672 90.08300018310545 L 99.12735748291016 90.11199951171874 L 99.51300048828125 91.19200134277342 L 100.01699829101562 92.25700378417967 L 100.62200164794922 93.2679977416992 L 101.3239974975586 94.21399688720702 L 102.11499786376953 95.08599853515624 L 102.98699951171875 95.87699890136717 L 103.93299865722656 96.57900238037107 L 104.94300079345703 97.18399810791013 L 106.00800323486328 97.68800354003903 L 106.49600219726562 97.86225128173825 L 107.11699676513672 98.08399963378903 L 107.9954605102539 98.30400085449216 L 108.25900268554688 98.370002746582 L 109.42400360107422 98.5429992675781 L 110.5999984741211 98.60099792480466 L 111.7760009765625 98.5429992675781 M 103.19599914550781 188.18099975585935 L 103.15879821777344 188.4160003662109 L 103.0979995727539 188.80000305175778 L 103.19599914550781 189.41900634765622 L 103.4800033569336 189.97700500488278 L 103.9229965209961 190.41999816894528 L 104.48100280761719 190.70500183105466 L 105.0999984741211 190.80299377441403 L 105.71900177001953 190.70500183105466 L 106.2770004272461 190.41999816894528 L 106.49600219726562 190.20100402832028 L 106.72000122070312 189.97700500488278 L 107.00399780273438 189.41900634765622 L 107.10299682617188 188.80000305175778 L 107.04158782958984 188.4160003662109 L 107.00399780273438 188.18099975585935 L 106.72000122070312 187.62300109863278 L 106.2770004272461 187.17999267578122 L 105.71900177001953 186.89599609374997 L 105.0999984741211 186.7980041503906 L 104.48100280761719 186.89599609374997 L 103.9229965209961 187.17999267578122 L 103.4800033569336 187.62300109863278 L 103.19599914550781 188.18099975585935 M 73.19599914550781 188.18099975585935 L 73.15879821777344 188.4160003662109 L 73.0979995727539 188.80000305175778 L 73.19599914550781 189.41900634765622 L 73.4800033569336 189.97700500488278 L 73.72799682617188 190.2250061035156 L 73.9229965209961 190.41999816894528 L 74.48100280761719 190.70500183105466 L 75.0999984741211 190.80299377441403 L 75.71900177001953 190.70500183105466 L 76.2770004272461 190.41999816894528 L 76.72000122070312 189.97700500488278 L 77.00399780273438 189.41900634765622 L 77.10299682617188 188.80000305175778 L 77.04158782958984 188.4160003662109 L 77.00399780273438 188.18099975585935 L 76.72000122070312 187.62300109863278 L 76.2770004272461 187.17999267578122 L 75.71900177001953 186.89599609374997 L 75.0999984741211 186.7980041503906 L 74.48100280761719 186.89599609374997 L 73.9229965209961 187.17999267578122 L 73.4800033569336 187.62300109863278 L 73.19599914550781 188.18099975585935 M 206.0996856689453 49.15200042724608 L 206.04400634765625 48.02299880981444 L 205.87100219726562 46.85800170898437 L 205.5850067138672 45.71599960327148 L 205.18899536132812 44.605998992919915 L 204.8000030517578 43.784004211425774 L 204.68499755859375 43.54100036621093 L 204.30104064941406 42.9000015258789 L 204.0800018310547 42.53099822998046 L 203.3780059814453 41.58499908447265 L 202.81105041503906 40.95999908447265 L 202.58700561523438 40.713001251220696 L 201.71499633789062 39.92200088500976 L 200.7689971923828 39.22000122070312 L 199.75900268554688 38.61500167846679 L 198.69400024414062 38.11100006103515 L 197.5850067138672 37.71500015258788 L 196.60800170898438 37.47032165527343 L 196.4429931640625 37.42900085449218 L 195.2779998779297 37.25600051879882 L 194.1020050048828 37.19800186157226 L 192.92599487304688 37.25600051879882 L 191.76100158691406 37.42900085449218 L 190.61900329589844 37.71500015258788 L 189.50999450683594 38.11100006103515 L 188.44500732421875 38.61500167846679 L 188.41600036621094 38.63236999511718 L 187.43499755859375 39.22000122070312 L 186.48899841308594 39.92200088500976 L 185.61700439453125 40.713001251220696 L 185.3929443359375 40.95999908447265 L 184.8260040283203 41.58499908447265 L 184.12399291992188 42.53099822998046 L 183.90296936035156 42.9000015258789 L 183.5189971923828 43.54100036621093 L 183.01499938964844 44.605998992919915 L 182.61900329589844 45.71599960327148 L 182.33299255371094 46.85800170898437 L 182.16000366210938 48.02299880981444 L 182.1043243408203 49.15200042724608 L 182.1020050048828 49.199001312255845 L 182.16000366210938 50.374999999999986 L 182.33299255371094 51.54000091552733 L 182.61900329589844 52.681999206542955 L 183.01499938964844 53.79100036621092 L 183.5189971923828 54.85599899291991 L 184.12399291992188 55.866001129150376 L 184.8260040283203 56.81200027465819 L 185.30857849121094 57.34400177001952 L 185.61700439453125 57.68399810791014 L 186.48899841308594 58.47499847412108 L 187.43499755859375 59.17699813842772 L 188.41600036621094 59.76462936401366 L 188.44500732421875 59.782001495361314 L 189.50999450683594 60.28599929809569 L 190.61900329589844 60.681999206542955 L 191.76100158691406 60.96799850463866 L 192.92599487304688 61.14099884033202 L 194.1020050048828 61.199001312255845 L 195.2779998779297 61.14099884033202 L 196.4429931640625 60.96799850463866 L 196.60800170898438 60.92667770385741 L 197.5850067138672 60.681999206542955 L 198.69400024414062 60.28599929809569 L 199.75900268554688 59.782001495361314 L 200.7689971923828 59.17699813842772 L 201.71499633789062 58.47499847412108 L 202.58700561523438 57.68399810791014 L 202.89541625976562 57.34400177001952 L 203.3780059814453 56.81200027465819 L 204.0800018310547 55.866001129150376 L 204.68499755859375 54.85599899291991 L 204.8000030517578 54.612995147705064 L 205.18899536132812 53.79100036621092 L 205.5850067138672 52.681999206542955 L 205.87100219726562 51.54000091552733 L 206.04400634765625 50.374999999999986 L 206.1020050048828 49.199001312255845 L 206.0996856689453 49.15200042724608 M 143.21400451660156 57.423000335693345 L 143.1075439453125 57.34400177001952 L 142.26800537109375 56.721000671386705 L 141.25799560546875 56.116001129150376 L 140.1929931640625 55.611999511718736 L 139.26400756835938 55.280273437499986 L 139.08399963378906 55.21599960327147 L 137.94200134277344 54.93000030517577 L 136.77699279785156 54.75699996948241 L 135.6009979248047 54.699001312255845 L 134.4250030517578 54.75699996948241 L 133.25999450683594 54.93000030517577 L 132.1179962158203 55.21599960327147 L 131.07200622558594 55.589504241943345 L 131.00900268554688 55.611999511718736 L 129.94400024414062 56.116001129150376 L 128.93299865722656 56.721000671386705 L 128.0934600830078 57.34400177001952 L 127.98699951171875 57.423000335693345 L 127.11499786376953 58.21400070190428 L 126.3239974975586 59.085998535156236 L 125.62200164794922 60.032001495361314 L 125.01699829101562 61.04199981689452 L 124.51300048828125 62.1069984436035 L 124.11699676513672 63.21599960327147 L 123.83100128173828 64.35800170898436 L 123.65799713134766 65.5230026245117 L 123.65735626220703 65.53600311279295 L 123.5999984741211 66.69899749755858 L 123.65799713134766 67.87499999999999 L 123.83100128173828 69.04100036621092 L 124.11699676513672 70.18299865722655 L 124.51300048828125 71.29199981689452 L 125.01699829101562 72.35700225830077 L 125.62200164794922 73.3669967651367 L 125.88988494873047 73.72799682617186 L 126.3239974975586 74.31300354003905 L 127.11499786376953 75.18499755859374 L 127.98699951171875 75.97599792480467 L 128.93299865722656 76.67800140380858 L 129.94400024414062 77.28299713134764 L 131.00900268554688 77.78700256347655 L 131.07200622558594 77.80949401855467 L 132.1179962158203 78.18299865722655 L 133.25999450683594 78.46900177001952 L 134.4250030517578 78.64199829101561 L 135.6009979248047 78.69999694824217 L 136.77699279785156 78.64199829101561 L 137.94200134277344 78.46900177001952 L 139.08399963378906 78.18299865722655 L 139.26400756835938 78.1187286376953 L 140.1929931640625 77.78700256347655 L 141.25799560546875 77.28299713134764 L 142.26800537109375 76.67800140380858 L 143.21400451660156 75.97599792480467 L 144.08599853515625 75.18499755859374 L 144.8769989013672 74.31300354003905 L 145.3111114501953 73.72799682617186 L 145.57899475097656 73.3669967651367 L 146.1840057373047 72.35700225830077 L 146.68800354003906 71.29199981689452 L 147.08399963378906 70.18299865722655 L 147.3699951171875 69.04100036621092 L 147.45599365234375 68.46137237548827 L 147.54299926757812 67.87499999999999 L 147.6009979248047 66.69899749755858 L 147.54364013671875 65.53600311279295 L 147.54299926757812 65.5230026245117 L 147.45599365234375 64.93713378906249 L 147.3699951171875 64.35800170898436 L 147.08399963378906 63.21599960327147 L 146.68800354003906 62.1069984436035 L 146.1840057373047 61.04199981689452 L 145.57899475097656 60.032001495361314 L 144.8769989013672 59.085998535156236 L 144.08599853515625 58.21400070190428 L 143.21400451660156 57.423000335693345 M 153.51400756835938 63.6069984436035 L 153.1179962158203 64.71600341796874 L 152.9126434326172 65.53600311279295 L 152.83200073242188 65.85800170898436 L 152.65899658203125 67.0230026245117 L 152.6009979248047 68.19899749755858 L 152.65899658203125 69.37599945068358 L 152.83200073242188 70.54100036621092 L 153.1179962158203 71.68299865722655 L 153.51400756835938 72.79199981689452 L 153.9569549560547 73.72799682617186 L 154.01800537109375 73.85700225830077 L 154.6230010986328 74.8669967651367 L 155.3249969482422 75.81300354003905 L 155.6479949951172 76.16907501220702 L 156.11599731445312 76.68499755859374 L 156.98800659179688 77.47599792480467 L 157.9340057373047 78.17800140380858 L 158.94400024414062 78.78299713134764 L 160.00900268554688 79.28700256347655 L 161.1179962158203 79.68299865722655 L 162.25999450683594 79.96900177001952 L 163.4250030517578 80.14199829101561 L 163.83999633789062 80.16246795654295 L 164.6009979248047 80.19999694824217 L 165.77699279785156 80.14199829101561 L 166.94200134277344 79.96900177001952 L 168.08399963378906 79.68299865722655 L 169.19400024414062 79.28700256347655 L 170.25900268554688 78.78299713134764 L 171.2689971923828 78.17800140380858 L 172.03199768066406 77.61180114746092 L 172.21499633789062 77.47599792480467 L 173.08700561523438 76.68499755859374 L 173.8780059814453 75.81300354003905 L 174.5800018310547 74.8669967651367 L 175.18499755859375 73.85700225830077 L 175.2460479736328 73.72799682617186 L 175.68899536132812 72.79199981689452 L 176.0850067138672 71.68299865722655 L 176.37100219726562 70.54100036621092 L 176.54400634765625 69.37599945068358 L 176.6020050048828 68.19899749755858 L 176.54400634765625 67.0230026245117 L 176.37100219726562 65.85800170898436 L 176.2903594970703 65.53600311279295 L 176.0850067138672 64.71600341796874 L 175.68899536132812 63.6069984436035 L 175.18499755859375 62.54199981689452 L 174.5800018310547 61.532001495361314 L 173.8780059814453 60.585998535156236 L 173.08700561523438 59.71400070190428 L 172.21499633789062 58.923000335693345 L 172.03199768066406 58.78720092773436 L 171.2689971923828 58.221000671386705 L 170.25900268554688 57.616001129150376 L 169.68423461914062 57.34400177001952 L 169.19400024414062 57.111999511718736 L 168.08399963378906 56.71599960327147 L 166.94200134277344 56.43000030517577 L 165.77699279785156 56.25699996948241 L 164.6009979248047 56.199001312255845 L 163.83999633789062 56.23653411865233 L 163.4250030517578 56.25699996948241 L 162.25999450683594 56.43000030517577 L 161.1179962158203 56.71599960327147 L 160.00900268554688 57.111999511718736 L 159.51876831054688 57.34400177001952 L 158.94400024414062 57.616001129150376 L 157.9340057373047 58.221000671386705 L 156.98800659179688 58.923000335693345 L 156.11599731445312 59.71400070190428 L 155.6479949951172 60.229923248291 L 155.3249969482422 60.585998535156236 L 154.6230010986328 61.532001495361314 L 154.01800537109375 62.54199981689452 L 153.51400756835938 63.6069984436035 M 136.177001953125 48.64099884033202 L 137.3419952392578 48.46799850463866 L 138.48399353027344 48.181999206542955 L 139.26400756835938 47.90348052978515 L 139.59300231933594 47.785999298095696 L 140.6580047607422 47.28200149536132 L 141.66799926757812 46.67699813842773 L 142.61399841308594 45.97499847412109 L 143.48599243164062 45.182998657226555 L 144.27699279785156 44.3110008239746 L 144.97900390625 43.36500167846679 L 145.25753784179688 42.9000015258789 L 145.58399963378906 42.35499954223632 L 146.08799743652344 41.29000091552734 L 146.20584106445312 40.95999908447265 L 146.48399353027344 40.18099975585937 L 146.77000427246094 39.03900146484374 L 146.9429931640625 37.8740005493164 L 147.00100708007812 36.69800186157226 L 146.9429931640625 35.52199935913085 L 146.77000427246094 34.35699844360351 L 146.48399353027344 33.21500015258788 L 146.3243865966797 32.76800155639648 L 146.08799743652344 32.105998992919915 L 145.58399963378906 31.04100036621093 L 144.97900390625 30.031000137329094 L 144.27699279785156 29.08499908447265 L 143.48599243164062 28.212999343872063 L 142.61399841308594 27.42200088500976 L 141.66799926757812 26.719999313354485 L 140.6580047607422 26.114999771118157 L 139.59300231933594 25.61100006103515 L 139.26400756835938 25.49352073669433 L 138.48399353027344 25.215000152587884 L 137.3419952392578 24.92900085449218 L 136.177001953125 24.75600051879882 L 135.00100708007812 24.697999954223626 L 133.8249969482422 24.75600051879882 L 132.66000366210938 24.92900085449218 L 131.51800537109375 25.215000152587884 L 131.07200622558594 25.374256134033196 L 130.40899658203125 25.61100006103515 L 129.34300231933594 26.114999771118157 L 128.33299255371094 26.719999313354485 L 127.38700103759766 27.42200088500976 L 126.51499938964844 28.212999343872063 L 125.7239990234375 29.08499908447265 L 125.02200317382812 30.031000137329094 L 124.41699981689453 31.04100036621093 L 123.91300201416016 32.105998992919915 L 123.6766128540039 32.76800155639648 L 123.51699829101562 33.21500015258788 L 123.23100280761719 34.35699844360351 L 123.05799865722656 35.52199935913085 L 123 36.69800186157226 L 123.05799865722656 37.8740005493164 L 123.23100280761719 39.03900146484374 L 123.51699829101562 40.18099975585937 L 123.795166015625 40.95999908447265 L 123.91300201416016 41.29000091552734 L 124.41699981689453 42.35499954223632 L 124.74346160888672 42.9000015258789 L 125.02200317382812 43.36500167846679 L 125.7239990234375 44.3110008239746 L 126.51499938964844 45.182998657226555 L 127.38700103759766 45.97499847412109 L 128.33299255371094 46.67699813842773 L 129.34300231933594 47.28200149536132 L 130.40899658203125 47.785999298095696 L 131.07200622558594 48.02274322509764 L 131.51800537109375 48.181999206542955 L 132.66000366210938 48.46799850463866 L 133.8249969482422 48.64099884033202 L 135.00100708007812 48.699001312255845 L 136.177001953125 48.64099884033202 M 155.3249969482422 44.3110008239746 L 155.6479949951172 44.66707611083984 L 156.11599731445312 45.182998657226555 L 156.98800659179688 45.97499847412109 L 157.9340057373047 46.67699813842773 L 158.94400024414062 47.28200149536132 L 160.00900268554688 47.785999298095696 L 161.1179962158203 48.181999206542955 L 162.25999450683594 48.46799850463866 L 163.4250030517578 48.64099884033202 L 163.83999633789062 48.66146850585936 L 164.6009979248047 48.699001312255845 L 165.77699279785156 48.64099884033202 L 166.94200134277344 48.46799850463866 L 168.08399963378906 48.181999206542955 L 169.19400024414062 47.785999298095696 L 170.25900268554688 47.28200149536132 L 171.2689971923828 46.67699813842773 L 172.03199768066406 46.11079788208007 L 172.21499633789062 45.97499847412109 L 173.08700561523438 45.182998657226555 L 173.8780059814453 44.3110008239746 L 174.5800018310547 43.36500167846679 L 174.85853576660156 42.9000015258789 L 175.18499755859375 42.35499954223632 L 175.68899536132812 41.29000091552734 L 175.8068389892578 40.95999908447265 L 176.0850067138672 40.18099975585937 L 176.37100219726562 39.03900146484374 L 176.54400634765625 37.8740005493164 L 176.6020050048828 36.69800186157226 L 176.54400634765625 35.52199935913085 L 176.37100219726562 34.35699844360351 L 176.0850067138672 33.21500015258788 L 175.92538452148438 32.76800155639648 L 175.68899536132812 32.105998992919915 L 175.18499755859375 31.04100036621093 L 174.5800018310547 30.031000137329094 L 173.8780059814453 29.08499908447265 L 173.08700561523438 28.212999343872063 L 172.21499633789062 27.42200088500976 L 172.03199768066406 27.286201477050774 L 171.2689971923828 26.719999313354485 L 170.25900268554688 26.114999771118157 L 169.19400024414062 25.61100006103515 L 168.08399963378906 25.215000152587884 L 166.94200134277344 24.92900085449218 L 165.77699279785156 24.75600051879882 L 164.6009979248047 24.697999954223626 L 163.83999633789062 24.73553276062011 L 163.4250030517578 24.75600051879882 L 162.25999450683594 24.92900085449218 L 161.1179962158203 25.215000152587884 L 160.00900268554688 25.61100006103515 L 158.94400024414062 26.114999771118157 L 157.9340057373047 26.719999313354485 L 156.98800659179688 27.42200088500976 L 156.11599731445312 28.212999343872063 L 155.6479949951172 28.728923797607415 L 155.3249969482422 29.08499908447265 L 154.6230010986328 30.031000137329094 L 154.01800537109375 31.04100036621093 L 153.51400756835938 32.105998992919915 L 153.27761840820312 32.76800155639648 L 153.1179962158203 33.21500015258788 L 152.83200073242188 34.35699844360351 L 152.65899658203125 35.52199935913085 L 152.6009979248047 36.69800186157226 L 152.65899658203125 37.8740005493164 L 152.83200073242188 39.03900146484374 L 153.1179962158203 40.18099975585937 L 153.3961639404297 40.95999908447265 L 153.51400756835938 41.29000091552734 L 154.01800537109375 42.35499954223632 L 154.34446716308594 42.9000015258789 L 154.6230010986328 43.36500167846679 L 155.3249969482422 44.3110008239746 M 69.51200103759766 64.60700225830077 L 69.1802749633789 65.53600311279295 L 69.11599731445312 65.71600341796874 L 68.83000183105469 66.85800170898436 L 68.65699768066406 68.0230026245117 L 68.5989990234375 69.19999694824217 L 68.65699768066406 70.37599945068358 L 68.83000183105469 71.54100036621092 L 69.11599731445312 72.68299865722655 L 69.48914337158203 73.72799682617186 L 69.51200103759766 73.79199981689452 L 70.01599884033203 74.85700225830077 L 70.62100219726562 75.8669967651367 L 71.322998046875 76.81300354003905 L 72.11399841308594 77.68499755859374 L 72.98600006103516 78.47599792480467 L 73.72799682617188 79.02661895751952 L 73.93199920654297 79.17800140380858 L 74.94200134277344 79.78299713134764 L 76.00700378417969 80.28700256347655 L 77.11599731445312 80.68299865722655 L 78.25800323486328 80.96900177001952 L 79.4229965209961 81.14199829101561 L 80.5989990234375 81.19999694824217 L 81.7750015258789 81.14199829101561 L 81.91999816894531 81.12046813964842 L 82.94000244140625 80.96900177001952 L 84.08200073242188 80.68299865722655 L 85.19100189208984 80.28700256347655 L 86.25599670410156 79.78299713134764 L 87.26599884033203 79.17800140380858 L 88.21199798583984 78.47599792480467 L 89.08399963378906 77.68499755859374 L 89.8759994506836 76.81300354003905 L 90.11199951171875 76.49497222900389 L 90.5780029296875 75.8669967651367 L 91.18299865722656 74.85700225830077 L 91.68699645996094 73.79199981689452 L 91.70985412597656 73.72799682617186 L 92.08300018310547 72.68299865722655 L 92.36900329589844 71.54100036621092 L 92.54199981689453 70.37599945068358 L 92.5999984741211 69.19999694824217 L 92.54199981689453 68.0230026245117 L 92.36900329589844 66.85800170898436 L 92.08300018310547 65.71600341796874 L 92.01872253417969 65.53600311279295 L 91.68699645996094 64.60700225830077 L 91.18299865722656 63.54199981689452 L 90.5780029296875 62.532001495361314 L 90.11199951171875 61.90402984619139 L 89.8759994506836 61.585998535156236 L 89.08399963378906 60.71400070190428 L 88.21199798583984 59.923000335693345 L 87.26599884033203 59.221000671386705 L 86.25599670410156 58.616001129150376 L 85.19100189208984 58.111999511718736 L 84.08200073242188 57.71599960327147 L 82.94000244140625 57.43000030517577 L 82.36087036132812 57.34400177001952 L 81.91999816894531 57.27853393554686 L 81.7750015258789 57.25699996948241 L 80.5989990234375 57.199001312255845 L 79.4229965209961 57.25699996948241 L 78.8371353149414 57.34400177001952 L 78.25800323486328 57.43000030517577 L 77.11599731445312 57.71599960327147 L 76.00700378417969 58.111999511718736 L 74.94200134277344 58.616001129150376 L 73.93199920654297 59.221000671386705 L 73.72799682617188 59.37238311767577 L 72.98600006103516 59.923000335693345 L 72.11399841308594 60.71400070190428 L 71.322998046875 61.585998535156236 L 70.62100219726562 62.532001495361314 L 70.01599884033203 63.54199981689452 L 69.51200103759766 64.60700225830077 M 66.26226043701172 57.34400177001952 L 66.29900360107422 56.598999023437486 L 66.24099731445312 55.423000335693345 L 66.06800079345703 54.257999420166 L 65.78199768066406 53.116001129150376 L 65.53600311279297 52.42707443237303 L 65.38600158691406 52.00699996948241 L 64.88200378417969 50.94200134277342 L 64.2770004272461 49.931999206542955 L 63.698184967041016 49.15200042724608 L 63.57500076293945 48.98600006103514 L 62.784000396728516 48.11399841308592 L 61.9119987487793 47.32300186157226 L 60.965999603271484 46.62099838256835 L 59.95600128173828 46.015998840332024 L 58.89099884033203 45.51200103759765 L 57.78200149536133 45.11500167846679 L 57.34400177001953 45.00531005859374 L 56.63999938964844 44.82899856567382 L 55.474998474121094 44.65599822998046 L 54.29899978637695 44.5979995727539 L 53.12300109863281 44.65599822998046 L 51.95800018310547 44.82899856567382 L 50.816001892089844 45.11500167846679 L 49.707000732421875 45.51200103759765 L 49.152000427246094 45.774402618408196 L 48.64099884033203 46.015998840332024 L 47.63100051879883 46.62099838256835 L 46.685001373291016 47.32300186157226 L 45.8129997253418 48.11399841308592 L 45.02199935913086 48.98600006103514 L 44.8988151550293 49.15200042724608 L 44.31999969482422 49.931999206542955 L 43.71500015258789 50.94200134277342 L 43.21099853515625 52.00699996948241 L 42.814998626708984 53.116001129150376 L 42.52899932861328 54.257999420166 L 42.35599899291992 55.423000335693345 L 42.29800033569336 56.598999023437486 L 42.33474349975586 57.34400177001952 L 42.35599899291992 57.77500152587889 L 42.52899932861328 58.93999862670897 L 42.814998626708984 60.08200073242186 L 43.21099853515625 61.19100189208983 L 43.71500015258789 62.256000518798814 L 44.31999969482422 63.26599884033202 L 45.02199935913086 64.21199798583983 L 45.8129997253418 65.08399963378905 L 46.31128692626953 65.53600311279295 L 46.685001373291016 65.87499999999999 L 47.63100051879883 66.57700347900389 L 48.64099884033203 67.18199920654295 L 49.152000427246094 67.42359924316405 L 49.707000732421875 67.68599700927733 L 50.816001892089844 68.08200073242186 L 51.95800018310547 68.3679962158203 L 53.12300109863281 68.54100036621092 L 54.29899978637695 68.59899902343749 L 55.474998474121094 68.54100036621092 L 56.63999938964844 68.3679962158203 L 57.34400177001953 68.19168853759764 L 57.78200149536133 68.08200073242186 L 58.89099884033203 67.68599700927733 L 59.95600128173828 67.18199920654295 L 60.965999603271484 66.57700347900389 L 61.9119987487793 65.87499999999999 L 62.28571319580078 65.53600311279295 L 62.784000396728516 65.08399963378905 L 63.57500076293945 64.21199798583983 L 64.2770004272461 63.26599884033202 L 64.88200378417969 62.256000518798814 L 65.38600158691406 61.19100189208983 L 65.53600311279297 60.77092361450194 L 65.78199768066406 60.08200073242186 L 66.06800079345703 58.93999862670897 L 66.24099731445312 57.77500152587889 L 66.26226043701172 57.34400177001952 M 96.15799713134766 58.374999999999986 L 96.33100128173828 59.54000091552733 L 96.61699676513672 60.681999206542955 L 97.01300048828125 61.79100036621092 L 97.51699829101562 62.85599899291991 L 98.12200164794922 63.866001129150376 L 98.30400085449219 64.1112594604492 L 98.8239974975586 64.81199645996092 L 99.48075103759766 65.53600311279295 L 99.61499786376953 65.68399810791014 L 100.48699951171875 66.47499847412108 L 101.43299865722656 67.17700195312499 L 102.44300079345703 67.78199768066405 L 103.50800323486328 68.28600311279295 L 104.61699676513672 68.68199920654295 L 105.75900268554688 68.96900177001952 L 106.49600219726562 69.0784454345703 L 106.92400360107422 69.14199829101561 L 108.0999984741211 69.19999694824217 L 109.2760009765625 69.14199829101561 L 110.44100189208984 68.96900177001952 L 111.58300018310547 68.68199920654295 L 112.69200134277344 68.28600311279295 L 113.75700378417969 67.78199768066405 L 114.68800354003906 67.2243194580078 L 114.76699829101562 67.17700195312499 L 115.71299743652344 66.47499847412108 L 116.58499908447266 65.68399810791014 L 116.71925354003906 65.53600311279295 L 117.3759994506836 64.81199645996092 L 118.0780029296875 63.866001129150376 L 118.68299865722656 62.85599899291991 L 119.18699645996094 61.79100036621092 L 119.58300018310547 60.681999206542955 L 119.86900329589844 59.54000091552733 L 120.04199981689453 58.374999999999986 L 120.09284973144531 57.34400177001952 L 120.0999984741211 57.199001312255845 L 120.04199981689453 56.02299880981444 L 119.86900329589844 54.85800170898436 L 119.58300018310547 53.71599960327147 L 119.18699645996094 52.6069984436035 L 118.68299865722656 51.54199981689452 L 118.0780029296875 50.532001495361314 L 117.3759994506836 49.585998535156236 L 116.98231506347656 49.15200042724608 L 116.58499908447266 48.71400070190428 L 115.71299743652344 47.92300033569335 L 114.76699829101562 47.22100067138671 L 114.68800354003906 47.17367935180663 L 113.75700378417969 46.61600112915038 L 112.69200134277344 46.11199951171874 L 111.58300018310547 45.71599960327148 L 110.44100189208984 45.430000305175774 L 109.2760009765625 45.25600051879882 L 108.0999984741211 45.19800186157226 L 106.92400360107422 45.25600051879882 L 106.49600219726562 45.3199234008789 L 105.75900268554688 45.430000305175774 L 104.61699676513672 45.71599960327148 L 103.50800323486328 46.11199951171874 L 102.44300079345703 46.61600112915038 L 101.43299865722656 47.22100067138671 L 100.48699951171875 47.92300033569335 L 99.61499786376953 48.71400070190428 L 99.21768951416016 49.15200042724608 L 98.8239974975586 49.585998535156236 L 98.30400085449219 50.28673934936522 L 98.12200164794922 50.532001495361314 L 97.51699829101562 51.54199981689452 L 97.01300048828125 52.6069984436035 L 96.61699676513672 53.71599960327147 L 96.33100128173828 54.85800170898436 L 96.15799713134766 56.02299880981444 L 96.0999984741211 57.199001312255845 L 96.1071548461914 57.34400177001952 L 96.15799713134766 58.374999999999986 M 12.829000473022461 59.54000091552733 L 13.114999771118164 60.681999206542955 L 13.51099967956543 61.79100036621092 L 14.015000343322754 62.85599899291991 L 14.619999885559082 63.866001129150376 L 15.321999549865723 64.81199645996092 L 15.978747367858887 65.53600311279295 L 16.113000869750977 65.68399810791014 L 16.384000778198242 65.92982482910155 L 16.985000610351562 66.47499847412108 L 17.930999755859375 67.17700195312499 L 18.94099998474121 67.78199768066405 L 20.006000518798828 68.28600311279295 L 21.114999771118164 68.68199920654295 L 22.256999969482422 68.96900177001952 L 23.422000885009766 69.14199829101561 L 24.576000213623047 69.19891357421874 L 24.597999572753906 69.19999694824217 L 25.77400016784668 69.14199829101561 L 26.93899917602539 68.96900177001952 L 28.08099937438965 68.68199920654295 L 29.190000534057617 68.28600311279295 L 30.2549991607666 67.78199768066405 L 31.264999389648438 67.17700195312499 L 32.21099853515625 66.47499847412108 L 32.768001556396484 65.96974182128905 L 33.08300018310547 65.68399810791014 L 33.21725082397461 65.53600311279295 L 33.874000549316406 64.81199645996092 L 34.57600021362305 63.866001129150376 L 35.180999755859375 62.85599899291991 L 35.685001373291016 61.79100036621092 L 36.08100128173828 60.681999206542955 L 36.367000579833984 59.54000091552733 L 36.540000915527344 58.374999999999986 L 36.59084701538086 57.34400177001952 L 36.597999572753906 57.199001312255845 L 36.540000915527344 56.02299880981444 L 36.367000579833984 54.85800170898436 L 36.08100128173828 53.71599960327147 L 35.685001373291016 52.6069984436035 L 35.180999755859375 51.54199981689452 L 34.57600021362305 50.532001495361314 L 33.874000549316406 49.585998535156236 L 33.48031234741211 49.15200042724608 L 33.08300018310547 48.71400070190428 L 32.768001556396484 48.42826080322264 L 32.21099853515625 47.92300033569335 L 31.264999389648438 47.22100067138671 L 30.2549991607666 46.61600112915038 L 29.190000534057617 46.11199951171874 L 28.08099937438965 45.71599960327148 L 26.93899917602539 45.430000305175774 L 25.77400016784668 45.25600051879882 L 24.597999572753906 45.19800186157226 L 24.576000213623047 45.199085235595696 L 23.422000885009766 45.25600051879882 L 22.256999969482422 45.430000305175774 L 21.114999771118164 45.71599960327148 L 20.006000518798828 46.11199951171874 L 18.94099998474121 46.61600112915038 L 17.930999755859375 47.22100067138671 L 16.985000610351562 47.92300033569335 L 16.384000778198242 48.468173980712876 L 16.113000869750977 48.71400070190428 L 15.715685844421387 49.15200042724608 L 15.321999549865723 49.585998535156236 L 14.619999885559082 50.532001495361314 L 14.015000343322754 51.54199981689452 L 13.51099967956543 52.6069984436035 L 13.114999771118164 53.71599960327147 L 12.829000473022461 54.85800170898436 L 12.656000137329102 56.02299880981444 L 12.597999572753906 57.199001312255845 L 12.605151176452637 57.34400177001952 L 12.656000137329102 58.374999999999986 L 12.829000473022461 59.54000091552733 M 253.95199584960938 7.16524028778076 L 253.92300415039062 7.179999828338621 L 253.47999572753906 7.623000144958494 L 253.1959991455078 8.180999755859373 L 253.1942596435547 8.19200038909912 L 253.09800720214844 8.800000190734862 L 253.1959991455078 9.418999671936033 L 253.47999572753906 9.977000236511229 L 253.92300415039062 10.420000076293944 L 253.95199584960938 10.434760093688963 L 254.4810028076172 10.70400047302246 L 255.10000610351562 10.803000450134276 L 255.718994140625 10.70400047302246 L 256.2770080566406 10.420000076293944 L 256.7200012207031 9.977000236511229 L 257.0039978027344 9.418999671936033 L 257.1029968261719 8.800000190734862 L 257.0057678222656 8.19200038909912 L 257.0039978027344 8.180999755859373 L 256.7200012207031 7.623000144958494 L 256.2770080566406 7.179999828338621 L 255.718994140625 6.895999908447264 L 255.10000610351562 6.797999858856199 L 254.4810028076172 6.895999908447264 L 253.95199584960938 7.16524028778076 M 106.49600219726562 7.399000167846678 L 106.2770004272461 7.179999828338621 L 105.71900177001953 6.895999908447264 L 105.0999984741211 6.797999858856199 L 104.48100280761719 6.895999908447264 L 103.9229965209961 7.179999828338621 L 103.4800033569336 7.623000144958494 L 103.19599914550781 8.180999755859373 L 103.19425964355469 8.19200038909912 L 103.0979995727539 8.800000190734862 L 103.19599914550781 9.418999671936033 L 103.4800033569336 9.977000236511229 L 103.9229965209961 10.420000076293944 L 104.48100280761719 10.70400047302246 L 105.0999984741211 10.803000450134276 L 105.71900177001953 10.70400047302246 L 106.2770004272461 10.420000076293944 L 106.72000122070312 9.977000236511229 L 107.00399780273438 9.418999671936033 L 107.10299682617188 8.800000190734862 L 107.0057601928711 8.19200038909912 L 107.00399780273438 8.180999755859373 L 106.72000122070312 7.623000144958494 L 106.49600219726562 7.399000167846678 M 73.72799682617188 7.374999999999998 L 73.4800033569336 7.623000144958494 L 73.19599914550781 8.180999755859373 L 73.19425964355469 8.19200038909912 L 73.0979995727539 8.800000190734862 L 73.19599914550781 9.418999671936033 L 73.4800033569336 9.977000236511229 L 73.9229965209961 10.420000076293944 L 74.48100280761719 10.70400047302246 L 75.0999984741211 10.803000450134276 L 75.71900177001953 10.70400047302246 L 76.2770004272461 10.420000076293944 L 76.72000122070312 9.977000236511229 L 77.00399780273438 9.418999671936033 L 77.10299682617188 8.800000190734862 L 77.0057601928711 8.19200038909912 L 77.00399780273438 8.180999755859373 L 76.72000122070312 7.623000144958494 L 76.2770004272461 7.179999828338621 L 75.71900177001953 6.895999908447264 L 75.0999984741211 6.797999858856199 L 74.48100280761719 6.895999908447264 L 73.9229965209961 7.179999828338621 L 73.72799682617188 7.374999999999998 M -73.72799682617188 7.177455425262449 L -74.28099822998047 6.895999908447264 L -74.9000015258789 6.797999858856199 L -75.51899719238281 6.895999908447264 L -76.0770034790039 7.179999828338621 L -76.5199966430664 7.623000144958494 L -76.80400085449219 8.180999755859373 L -76.80575561523438 8.19200038909912 L -76.90299987792969 8.800000190734862 L -76.80400085449219 9.418999671936033 L -76.5199966430664 9.977000236511229 L -76.0770034790039 10.420000076293944 L -75.51899719238281 10.70400047302246 L -74.9000015258789 10.803000450134276 L -74.28099822998047 10.70400047302246 L -73.72799682617188 10.422544479370115 L -73.7229995727539 10.420000076293944 L -73.27999877929688 9.977000236511229 L -72.99600219726562 9.418999671936033 L -72.89800262451172 8.800000190734862 L -72.99425506591797 8.19200038909912 L -72.99600219726562 8.180999755859373 L -73.27999877929688 7.623000144958494 L -73.7229995727539 7.179999828338621 L -73.72799682617188 7.177455425262449 M -73.72799682617188 187.17745971679685 L -74.28099822998047 186.89599609374997 L -74.9000015258789 186.7980041503906 L -75.51899719238281 186.89599609374997 L -76.0770034790039 187.17999267578122 L -76.5199966430664 187.62300109863278 L -76.80400085449219 188.18099975585935 L -76.84158325195312 188.4160003662109 L -76.90299987792969 188.80000305175778 L -76.80400085449219 189.41900634765622 L -76.5199966430664 189.97700500488278 L -76.0770034790039 190.41999816894528 L -75.51899719238281 190.70500183105466 L -74.9000015258789 190.80299377441403 L -74.28099822998047 190.70500183105466 L -73.72799682617188 190.42254638671872 L -73.7229995727539 190.41999816894528 L -73.27999877929688 189.97700500488278 L -72.99600219726562 189.41900634765622 L -72.89800262451172 188.80000305175778 L -72.95879364013672 188.4160003662109 L -72.99600219726562 188.18099975585935 L -73.27999877929688 187.62300109863278 L -73.7229995727539 187.17999267578122 L -73.72799682617188 187.17745971679685 z" fill="none" stroke="rgb(255,0,0)" stroke-width="0.001mm" />
</svg>